<svg width="28" height="28" viewBox="0 0 28 28" fill="none" xmlns="http://www.w3.org/2000/svg">
<path d="M25.6666 14.0014C25.6666 21.0014 20.5449 25.668 14.2263 25.668C9.09059 25.668 4.94659 22.9439 3.49992 18.668M2.33325 14.0014C2.33325 7.00138 7.45492 2.33472 13.7748 2.33472C18.9093 2.33472 23.0509 5.05888 24.4999 9.33472" stroke="#00B3B3" stroke-width="2" stroke-linecap="round" stroke-linejoin="round"/>
<path d="M8.16659 19.8351L3.49992 18.6685L2.33325 23.3351M19.8333 8.16846L24.4999 9.33512L25.6666 4.66846" stroke="#00B3B3" stroke-width="2" stroke-linecap="round" stroke-linejoin="round"/>
<path d="M10.3333 17.999V10.7004C10.3333 10.5452 10.3848 10.3945 10.4797 10.2718C10.5746 10.1491 10.7076 10.0614 10.8577 10.0225C11.0079 9.98362 11.1667 9.99568 11.3093 10.0568C11.4518 10.118 11.57 10.2247 11.6453 10.3604L15.688 17.6377C15.7633 17.7733 15.8815 17.8801 16.0241 17.9412C16.1666 18.0024 16.3254 18.0144 16.4756 17.9755C16.6258 17.9366 16.7587 17.8489 16.8537 17.7262C16.9486 17.6035 17 17.4528 17 17.2977V9.99902M9 12.6657H18.3333M9 15.3324H18.3333" stroke="#004D4D" stroke-width="1.2" stroke-linecap="round" stroke-linejoin="round"/>
</svg>
