<svg width="20" height="20" viewBox="0 0 20 20" fill="none" xmlns="http://www.w3.org/2000/svg">
<rect width="20" height="20" transform="translate(0 0.00201416)" fill="white" fill-opacity="0.01" style="mix-blend-mode:multiply"/>
<path d="M10 1.25201C8.26942 1.25201 6.57769 1.76519 5.13876 2.72666C3.69983 3.68812 2.57832 5.05468 1.91606 6.65353C1.25379 8.25239 1.08051 10.0117 1.41813 11.7091C1.75575 13.4064 2.58911 14.9655 3.81282 16.1892C5.03653 17.4129 6.59563 18.2463 8.29296 18.5839C9.9903 18.9215 11.7496 18.7482 13.3485 18.086C14.9473 17.4237 16.3139 16.3022 17.2754 14.8633C18.2368 13.4243 18.75 11.7326 18.75 10.002C18.75 7.68137 17.8281 5.45577 16.1872 3.81483C14.5462 2.17389 12.3206 1.25201 10 1.25201ZM10 17.502C8.51664 17.502 7.0666 17.0621 5.83323 16.238C4.59986 15.4139 3.63856 14.2426 3.07091 12.8721C2.50325 11.5017 2.35473 9.99369 2.64411 8.53884C2.9335 7.08398 3.64781 5.74761 4.6967 4.69871C5.7456 3.64982 7.08197 2.93551 8.53683 2.64612C9.99168 2.35674 11.4997 2.50526 12.8701 3.07292C14.2406 3.64057 15.4119 4.60187 16.236 5.83524C17.0601 7.06861 17.5 8.51865 17.5 10.002C17.5 11.9911 16.7098 13.8988 15.3033 15.3053C13.8968 16.7118 11.9891 17.502 10 17.502Z" fill="#161616"/>
</svg>
