<svg width="8" height="12" viewBox="0 0 8 12" fill="none" xmlns="http://www.w3.org/2000/svg">
<path d="M3.77581 5.20425C3.86751 5.01842 4.13246 5.01842 4.22416 5.20425L4.97043 6.71635C5.00686 6.79015 5.07726 6.8413 5.15868 6.85312L6.82738 7.0956C7.03243 7.1254 7.11433 7.3774 6.96593 7.52202L5.75846 8.69905C5.69953 8.75647 5.67263 8.83922 5.68656 8.92032L5.97161 10.5823C6.00663 10.7865 5.79226 10.9422 5.60886 10.8458L4.11631 10.0611C4.04348 10.0229 3.95648 10.0229 3.88366 10.0611L2.39111 10.8458C2.20771 10.9422 1.99333 10.7865 2.02836 10.5823L2.31341 8.92032C2.32733 8.83922 2.30043 8.75647 2.24151 8.69905L1.03403 7.52202C0.885631 7.3774 0.967531 7.1254 1.17258 7.0956L2.84128 6.85312C2.92271 6.8413 2.99311 6.79015 3.02953 6.71635L3.77581 5.20425Z" fill="#00B3B3" stroke="#004D4D" stroke-width="0.4" stroke-linecap="round" stroke-linejoin="round"/>
<path d="M7 1H1V3.5L4 4.75L7 3.5V1Z" fill="#00B3B3" stroke="#004D4D" stroke-width="0.4" stroke-linecap="round" stroke-linejoin="round"/>
</svg>