<svg width="20" height="20" viewBox="0 0 20 20" fill="none" xmlns="http://www.w3.org/2000/svg">
<rect width="20" height="20" transform="translate(0 0.00201416)" fill="white" fill-opacity="0.01" style="mix-blend-mode:multiply"/>
<rect x="5" y="5.00201" width="10" height="10" fill="white"/>
<rect width="20" height="20" transform="translate(0 0.00201416)" fill="white" fill-opacity="0.01" style="mix-blend-mode:multiply"/>
<path d="M10 1.25201C8.26942 1.25201 6.57769 1.76519 5.13876 2.72666C3.69983 3.68812 2.57832 5.05468 1.91606 6.65353C1.25379 8.25239 1.08051 10.0117 1.41813 11.7091C1.75575 13.4064 2.58911 14.9655 3.81282 16.1892C5.03653 17.4129 6.59563 18.2463 8.29296 18.5839C9.9903 18.9215 11.7496 18.7482 13.3485 18.086C14.9473 17.4237 16.3139 16.3022 17.2754 14.8633C18.2368 13.4243 18.75 11.7326 18.75 10.002C18.75 7.68137 17.8281 5.45577 16.1872 3.81483C14.5462 2.17389 12.3206 1.25201 10 1.25201ZM8.75 13.4963L5.625 10.3713L6.61913 9.37701L8.75 11.5078L13.3813 6.87701L14.3786 7.8682L8.75 13.4963Z" fill="#24A148"/>
</svg>
