<svg width="110" height="24" viewBox="0 0 110 24" fill="none" xmlns="http://www.w3.org/2000/svg">
<g clip-path="url(#clip0_301_16301)">
<path d="M0.160156 18.8855L3.6854 1.30959H7.33655L4.46599 15.6624H10.9122L10.2575 18.8855H0.160156ZM22.8284 18.8855C22.1904 18.8855 21.6616 18.7176 21.242 18.3818C20.8224 18.0461 20.6125 17.5677 20.6125 16.9466C20.6125 16.8123 20.6209 16.6696 20.6377 16.5185C20.6544 16.3674 20.6713 16.2583 20.688 16.1912L20.7636 15.8135H20.6125C20.0922 16.8878 19.5046 17.7188 18.8499 18.3063C18.1952 18.8939 17.3474 19.1876 16.3066 19.1876C15.6855 19.1876 15.1484 19.0785 14.6951 18.8603C14.2586 18.6253 13.8977 18.3063 13.6124 17.9034C13.327 17.4838 13.1171 16.9969 12.9828 16.443C12.8485 15.8722 12.7814 15.2595 12.7814 14.6048C12.7814 13.1947 12.9409 11.9273 13.2598 10.8026C13.5956 9.66106 14.0404 8.68742 14.5944 7.88165C15.1484 7.07588 15.7946 6.45477 16.5333 6.01831C17.2887 5.58184 18.0861 5.36362 18.9254 5.36362C19.8486 5.36362 20.604 5.61542 21.1916 6.11903C21.796 6.62264 22.14 7.23536 22.224 7.95719H22.3499L22.8032 5.66578H26.3284L24.2385 16.0653H25.7241L25.1701 18.8855H22.8284ZM18.0441 16.2919C18.4973 16.2919 18.9086 16.1744 19.2779 15.9394C19.6472 15.7043 19.9663 15.419 20.2348 15.0832C20.5202 14.7475 20.7636 14.353 20.965 13.8998C21.1832 13.4297 21.3427 12.9513 21.4434 12.4645L21.8463 10.45C21.9807 9.82894 21.8548 9.30853 21.4686 8.88887C21.0825 8.4692 20.5202 8.25936 19.7815 8.25936C18.2539 8.25936 17.2887 9.24139 16.8858 11.2055L16.5333 12.9681C16.4997 13.1527 16.4661 13.3877 16.4326 13.6731C16.399 13.9585 16.3822 14.2019 16.3822 14.4034C16.3822 14.9909 16.5249 15.4525 16.8103 15.7883C17.1124 16.124 17.5237 16.2919 18.0441 16.2919ZM28.8478 5.66578H30.5853L30.9126 4.02906C31.1811 2.78683 31.6765 1.84677 32.3983 1.20887C33.12 0.570964 34.1021 0.252014 35.3444 0.252014H37.4595L36.8552 3.07221H34.6141L34.1105 5.66578H42.0423L40.0027 16.0653H41.4884L40.9344 18.8855H38.4919C37.8539 18.8855 37.3336 18.7092 36.9307 18.3567C36.5278 17.9874 36.3264 17.5089 36.3264 16.9214C36.3264 16.7871 36.3349 16.6612 36.3516 16.5437C36.3683 16.4094 36.3852 16.3087 36.4019 16.2415L37.9631 8.48598H33.5566L31.24 20.1445C30.9882 21.4202 30.4594 22.3688 29.6536 22.9898C28.8478 23.6109 27.8322 23.9215 26.6068 23.9215H24.4916L25.096 21.1013H27.5385L30.0313 8.48598H28.2939L28.8478 5.66578ZM40.607 4.18014C39.986 4.18014 39.5328 4.05424 39.2473 3.80244C38.9788 3.53386 38.8444 3.19811 38.8444 2.79523C38.8444 2.71129 38.8529 2.61056 38.8696 2.49306C38.8863 2.37556 38.9284 2.15732 38.9955 1.83837C39.0962 1.31798 39.3313 0.889914 39.7006 0.554176C40.0867 0.201653 40.6407 0.0253906 41.3625 0.0253906C41.9835 0.0253906 42.4285 0.159686 42.697 0.428274C42.9825 0.680078 43.1251 1.00742 43.1251 1.41031C43.1251 1.49424 43.1166 1.60336 43.0999 1.73765C43.0832 1.85516 43.0411 2.065 42.974 2.36716C42.8396 2.88755 42.5878 3.32401 42.2186 3.67654C41.8661 4.01228 41.3288 4.18014 40.607 4.18014ZM53.4947 18.8855C52.8567 18.8855 52.3279 18.7176 51.9083 18.3818C51.4887 18.0461 51.2788 17.5677 51.2788 16.9466C51.2788 16.8123 51.2872 16.6696 51.304 16.5185C51.3207 16.3674 51.3376 16.2583 51.3543 16.1912L51.4299 15.8135H51.2788C50.7585 16.8878 50.1708 17.7188 49.5162 18.3063C48.8615 18.8939 48.0138 19.1876 46.9729 19.1876C46.3519 19.1876 45.8147 19.0785 45.3614 18.8603C44.9249 18.6253 44.5641 18.3063 44.2787 17.9034C43.9932 17.4838 43.7835 16.9969 43.6491 16.443C43.5148 15.8722 43.4477 15.2595 43.4477 14.6048C43.4477 13.1947 43.6072 11.9273 43.9261 10.8026C44.2619 9.66106 44.7067 8.68742 45.2607 7.88165C45.8147 7.07588 46.4609 6.45477 47.1996 6.01831C47.955 5.58184 48.7523 5.36362 49.5917 5.36362C50.5149 5.36362 51.2703 5.61542 51.8579 6.11903C52.4623 6.62264 52.8063 7.23536 52.8903 7.95719H53.0162L53.4695 5.66578H56.9947L54.9048 16.0653H56.3904L55.8364 18.8855H53.4947ZM48.7104 16.2919C49.1636 16.2919 49.575 16.1744 49.9442 15.9394C50.3135 15.7043 50.6326 15.419 50.9011 15.0832C51.1865 14.7475 51.4299 14.353 51.6313 13.8998C51.8495 13.4297 52.009 12.9513 52.1097 12.4645L52.5126 10.45C52.647 9.82894 52.5211 9.30853 52.1349 8.88887C51.7487 8.4692 51.1865 8.25936 50.4478 8.25936C48.9203 8.25936 47.955 9.24139 47.5521 11.2055L47.1996 12.9681C47.1659 13.1527 47.1325 13.3877 47.0989 13.6731C47.0652 13.9585 47.0485 14.2019 47.0485 14.4034C47.0485 14.9909 47.1911 15.4525 47.4766 15.7883C47.7787 16.124 48.1901 16.2919 48.7104 16.2919Z" fill="#0F62FE"/>
<path d="M65.3002 19.188C64.36 19.188 63.5039 19.0369 62.7318 18.7348C61.9764 18.4326 61.3217 17.9878 60.7677 17.4002C60.2137 16.7959 59.7857 16.0489 59.4835 15.1592C59.1814 14.2694 59.0303 13.2287 59.0303 12.0368C59.0303 10.4924 59.2569 9.04874 59.7101 7.70578C60.1801 6.36282 60.8181 5.19615 61.6238 4.20571C62.4296 3.21528 63.378 2.43469 64.4692 1.86394C65.5772 1.29319 66.7691 1.00781 68.0448 1.00781C69.6227 1.00781 70.8987 1.38552 71.8722 2.14093C72.8627 2.87956 73.5678 3.92873 73.9874 5.28847L70.7391 6.64821C70.6384 6.31246 70.5125 6.00192 70.3614 5.71653C70.2103 5.41437 70.0174 5.16257 69.7823 4.96112C69.5641 4.7429 69.2871 4.57502 68.9513 4.45752C68.6324 4.32322 68.2378 4.25608 67.7678 4.25608C66.5928 4.25608 65.636 4.65896 64.8973 5.46473C64.1755 6.2705 63.6802 7.33648 63.4117 8.66263L62.8577 11.4325C62.8073 11.6843 62.7737 11.9193 62.757 12.1375C62.7402 12.339 62.7318 12.5236 62.7318 12.6915C62.7318 14.857 63.6971 15.9397 65.6275 15.9397C66.618 15.9397 67.4069 15.6963 67.9945 15.2095C68.5988 14.7227 69.0939 14.0932 69.4801 13.321L72.5269 14.7059C71.7379 16.2335 70.7139 17.3666 69.4549 18.1053C68.2126 18.8271 66.8277 19.188 65.3002 19.188ZM79.4263 19.188C77.7981 19.188 76.5139 18.7096 75.5737 17.7527C74.6336 16.7791 74.1636 15.4194 74.1636 13.6735C74.1636 12.4816 74.3315 11.3821 74.6673 10.3749C75.0198 9.3509 75.4982 8.46959 76.1025 7.73096C76.7069 6.99233 77.4204 6.41318 78.2429 5.99352C79.0823 5.57385 79.997 5.36401 80.9875 5.36401C82.6158 5.36401 83.9 5.85084 84.8401 6.82447C85.7802 7.78132 86.2502 9.13266 86.2502 10.8785C86.2502 12.0704 86.0739 13.1783 85.7214 14.2023C85.3856 15.2095 84.9156 16.0824 84.3113 16.8211C83.707 17.5597 82.9852 18.1388 82.1458 18.5585C81.3064 18.9782 80.3999 19.188 79.4263 19.188ZM79.5522 16.3426C80.9287 16.3426 81.81 15.3774 82.1962 13.4469L82.6746 11.0799C82.6913 10.996 82.7082 10.8869 82.725 10.7526C82.7417 10.6183 82.7501 10.4672 82.7501 10.2994C82.7501 9.66145 82.5906 9.15784 82.2717 8.78853C81.9528 8.40243 81.4827 8.20939 80.8616 8.20939C79.4852 8.20939 78.6038 9.17464 78.2177 11.1051L77.7393 13.4721C77.7225 13.556 77.7056 13.6651 77.6889 13.7994C77.6722 13.9337 77.6637 14.0848 77.6637 14.2527C77.6637 14.8906 77.8233 15.4026 78.1421 15.7887C78.461 16.158 78.9312 16.3426 79.5522 16.3426ZM87.4335 18.8858L90.0774 5.66617H93.6027L92.948 8.9648H93.1242C93.2586 8.61227 93.4431 8.24297 93.6782 7.85686C93.93 7.45398 94.2155 7.09305 94.5343 6.77411C94.8701 6.45516 95.2478 6.19496 95.6674 5.99352C96.104 5.77529 96.5739 5.66617 97.0775 5.66617H97.7071L97.002 9.0907H96.1207C94.996 9.0907 94.1399 9.30054 93.5523 9.72021C92.9647 10.1231 92.5618 10.8617 92.3436 11.9361L90.9587 18.8858H87.4335ZM103.289 19.188C101.409 19.188 100.007 18.6844 99.0837 17.6772C98.1605 16.6532 97.6988 15.2599 97.6988 13.4973C97.6988 12.4397 97.8666 11.4241 98.2024 10.4504C98.5382 9.46 99.0166 8.59549 99.6377 7.85686C100.259 7.10145 101.014 6.49712 101.904 6.04388C102.794 5.59063 103.784 5.36401 104.875 5.36401C105.379 5.36401 105.908 5.42277 106.462 5.54027C107.016 5.65777 107.519 5.85922 107.972 6.1446C108.442 6.41318 108.829 6.78251 109.131 7.25253C109.45 7.72256 109.609 8.31851 109.609 9.04034C109.609 9.72861 109.45 10.3497 109.131 10.9037C108.812 11.4409 108.316 11.9109 107.645 12.3138C106.974 12.6999 106.109 13.0104 105.051 13.2455C103.994 13.4637 102.726 13.598 101.249 13.6483C101.216 13.7994 101.199 13.9169 101.199 14.0009C101.199 14.0848 101.199 14.1603 101.199 14.2275C101.199 14.8654 101.367 15.3774 101.702 15.7635C102.055 16.1496 102.668 16.3426 103.541 16.3426C104.111 16.3426 104.64 16.2251 105.127 15.9901C105.631 15.7383 106.176 15.2431 106.764 14.5045L108.929 16.2167C108.107 17.3079 107.242 18.0801 106.336 18.5333C105.446 18.9698 104.43 19.188 103.289 19.188ZM104.674 8.0583C103.918 8.0583 103.272 8.31011 102.735 8.81371C102.215 9.30054 101.879 9.97201 101.728 10.8281L101.627 11.4073C102.567 11.3569 103.331 11.273 103.918 11.1555C104.523 11.038 104.993 10.8953 105.328 10.7274C105.664 10.5428 105.891 10.3413 106.008 10.1231C106.126 9.90487 106.185 9.66145 106.185 9.39286C106.185 9.10748 106.134 8.88086 106.033 8.71299C105.933 8.52833 105.807 8.39405 105.656 8.31011C105.505 8.20939 105.337 8.14225 105.152 8.10867C104.984 8.07508 104.825 8.0583 104.674 8.0583Z" fill="#008080"/>
</g>
<defs>
<clipPath id="clip0_301_16301">
<rect width="109.77" height="24" fill="white"/>
</clipPath>
</defs>
</svg>
